# Blender v2.93.4 OBJ File: 'goose.blend'
# www.blender.org
mtllib goose.mtl
o Cylinder
v 0.000000 0.038747 0.000000
v 0.000000 4.251144 0.000000
v 0.000000 0.038747 -1.000000
v 0.000000 3.805532 -1.000000
v 0.433884 0.038747 -0.900969
v 0.433884 3.805532 -0.900969
v 0.781832 0.038747 -0.623490
v 0.781832 3.805532 -0.623490
v 0.974928 0.038747 -0.222521
v 0.974928 3.805532 -0.222521
v 0.974928 0.038747 0.222521
v 0.974928 3.805532 0.222521
v 0.781832 0.038747 0.623490
v 0.781832 3.805532 0.623490
v 0.433884 0.038747 0.900969
v 0.433884 3.805532 0.900969
v -0.000000 0.038747 1.000000
v -0.000000 3.805532 1.000000
v -0.433884 0.038747 0.900969
v -0.433884 3.805532 0.900969
v -0.781832 0.038747 0.623490
v -0.781832 3.805532 0.623490
v -0.974928 0.038747 0.222521
v -0.974928 3.805532 0.222521
v -0.974928 0.038747 -0.222521
v -0.974928 3.805532 -0.222521
v -0.781832 0.038747 -0.623490
v -0.781832 3.805532 -0.623490
v -0.433884 0.038747 -0.900969
v -0.433884 3.805532 -0.900969
v 0.000000 4.119848 -0.500000
v 0.216942 4.119848 -0.450484
v 0.216942 3.805532 -0.950484
v 0.390916 4.119848 -0.311745
v 0.607858 3.805532 -0.762229
v 0.487464 4.119848 -0.111260
v 0.878380 3.805532 -0.423005
v 0.487464 4.119848 0.111260
v 0.974928 3.805532 -0.000000
v 0.390916 4.119848 0.311745
v 0.878380 3.805532 0.423005
v 0.216942 4.119848 0.450484
v 0.607858 3.805532 0.762229
v -0.000000 4.119848 0.500000
v 0.216942 3.805532 0.950484
v -0.216942 4.119848 0.450484
v -0.216942 3.805532 0.950484
v -0.390916 4.119848 0.311745
v -0.607858 3.805532 0.762229
v -0.487464 4.119848 0.111261
v -0.878380 3.805532 0.423005
v -0.487464 4.119848 -0.111261
v -0.974928 3.805532 -0.000000
v -0.390916 4.119848 -0.311745
v -0.878380 3.805532 -0.423005
v -0.216942 4.119848 -0.450484
v -0.607858 3.805532 -0.762229
v -0.216942 3.805532 -0.950484
v -0.998436 1.914360 -0.012296
v -0.998436 2.297441 -0.395378
v -0.998436 2.680523 -0.012296
v -0.998436 2.297441 0.370785
v -2.362040 2.297441 -0.012296
vt 0.750000 0.250000
vt 0.750000 0.490000
vt 0.854132 0.466233
vt 0.250000 0.250000
vt 0.302066 0.358116
vt 0.250000 0.370000
vt 1.000000 0.500000
vt 1.000000 1.000000
vt 0.964286 1.000000
vt 0.928571 1.000000
vt 0.928571 0.500000
vt 0.937640 0.399638
vt 0.343820 0.324819
vt 0.892857 1.000000
vt 0.857143 1.000000
vt 0.857143 0.500000
vt 0.983983 0.303405
vt 0.366991 0.276703
vt 0.821429 1.000000
vt 0.785714 1.000000
vt 0.785714 0.500000
vt 0.983983 0.196595
vt 0.366991 0.223297
vt 0.750000 1.000000
vt 0.714286 1.000000
vt 0.714286 0.500000
vt 0.937640 0.100362
vt 0.343820 0.175181
vt 0.678571 1.000000
vt 0.642857 1.000000
vt 0.642857 0.500000
vt 0.854132 0.033767
vt 0.302066 0.141884
vt 0.607143 1.000000
vt 0.571428 1.000000
vt 0.571428 0.500000
vt 0.750000 0.010000
vt 0.250000 0.130000
vt 0.535714 1.000000
vt 0.500000 1.000000
vt 0.500000 0.500000
vt 0.645868 0.033767
vt 0.197934 0.141884
vt 0.464286 1.000000
vt 0.428571 1.000000
vt 0.428571 0.500000
vt 0.562360 0.100362
vt 0.156180 0.175181
vt 0.392857 1.000000
vt 0.357143 1.000000
vt 0.357143 0.500000
vt 0.516017 0.196595
vt 0.133009 0.223297
vt 0.321428 1.000000
vt 0.285714 1.000000
vt 0.285714 0.500000
vt 0.516017 0.303405
vt 0.133009 0.276703
vt 0.250000 1.000000
vt 0.214286 1.000000
vt 0.214286 0.500000
vt 0.562360 0.399638
vt 0.156180 0.324819
vt 0.178571 1.000000
vt 0.142857 1.000000
vt 0.142857 0.500000
vt 0.645868 0.466233
vt 0.197934 0.358116
vt 0.107143 1.000000
vt 0.071428 1.000000
vt 0.071428 0.500000
vt 0.035714 1.000000
vt -0.000000 1.000000
vt -0.000000 0.500000
vt 0.197934 0.478116
vt 0.145868 0.466233
vt 0.250000 0.490000
vt 0.104114 0.432935
vt 0.062360 0.399638
vt 0.039189 0.351521
vt 0.016017 0.303405
vt 0.016017 0.250000
vt 0.016017 0.196595
vt 0.039189 0.148479
vt 0.062360 0.100362
vt 0.104114 0.067065
vt 0.145868 0.033767
vt 0.197934 0.021884
vt 0.250000 0.010000
vt 0.302066 0.021884
vt 0.354132 0.033767
vt 0.395886 0.067065
vt 0.437640 0.100362
vt 0.460811 0.148479
vt 0.483983 0.196595
vt 0.483983 0.250000
vt 0.483983 0.303405
vt 0.460811 0.351521
vt 0.437640 0.399638
vt 0.395886 0.432935
vt 0.354132 0.466233
vt 0.302066 0.478116
vt 0.250000 0.490000
vt 0.250000 0.250000
vt 0.490000 0.250000
vt 0.250000 0.010000
vt 0.750000 0.490000
vt 0.990000 0.250000
vt 0.750000 0.010000
vt 0.510000 0.250000
vt 0.010000 0.250000
vn 0.0000 -1.0000 0.0000
vn 0.0579 0.9656 -0.2536
vn 0.2225 0.0000 -0.9749
vn 0.1622 0.9656 -0.2033
vn 0.6235 0.0000 -0.7818
vn 0.2343 0.9656 -0.1128
vn 0.9010 -0.0000 -0.4339
vn 0.2601 0.9656 0.0000
vn 1.0000 0.0000 0.0000
vn 0.2343 0.9656 0.1128
vn 0.9010 -0.0000 0.4339
vn 0.1622 0.9656 0.2033
vn 0.6235 -0.0000 0.7818
vn 0.0579 0.9656 0.2536
vn 0.2225 0.0000 0.9749
vn -0.0579 0.9656 0.2536
vn -0.2225 0.0000 0.9749
vn -0.1622 0.9656 0.2033
vn -0.6235 0.0000 0.7818
vn -0.2343 0.9656 0.1128
vn -0.9010 0.0000 0.4339
vn -0.2601 0.9656 0.0000
vn -1.0000 0.0000 0.0000
vn -0.2343 0.9656 -0.1128
vn -0.9010 0.0000 -0.4339
vn -0.1622 0.9656 -0.2033
vn -0.6235 0.0000 -0.7818
vn -0.0579 0.9656 -0.2536
vn -0.2225 0.0000 -0.9749
vn -0.1206 0.8404 -0.5283
vn -0.3379 0.8404 -0.4237
vn -0.4882 0.8404 -0.2351
vn -0.5419 0.8404 0.0000
vn -0.4882 0.8404 0.2351
vn -0.3379 0.8404 0.4237
vn -0.1206 0.8404 0.5283
vn 0.1206 0.8404 0.5283
vn 0.3379 0.8404 0.4237
vn 0.4882 0.8404 0.2351
vn 0.5419 0.8404 0.0000
vn 0.4882 0.8404 -0.2351
vn 0.3379 0.8404 -0.4237
vn 0.1206 0.8404 -0.5283
vn -0.1948 -0.6936 -0.6936
vn -0.1948 0.6936 -0.6936
vn -0.1948 0.6936 0.6936
vn -0.1948 -0.6936 0.6936
usemtl Material.001
s off
f 1/1/1 3/2/1 5/3/1
f 2/4/2 32/5/2 31/6/2
f 3/7/3 4/8/3 33/9/3 6/10/3 5/11/3
f 1/1/1 5/3/1 7/12/1
f 2/4/4 34/13/4 32/5/4
f 5/11/5 6/10/5 35/14/5 8/15/5 7/16/5
f 1/1/1 7/12/1 9/17/1
f 2/4/6 36/18/6 34/13/6
f 7/16/7 8/15/7 37/19/7 10/20/7 9/21/7
f 1/1/1 9/17/1 11/22/1
f 2/4/8 38/23/8 36/18/8
f 9/21/9 10/20/9 39/24/9 12/25/9 11/26/9
f 1/1/1 11/22/1 13/27/1
f 2/4/10 40/28/10 38/23/10
f 11/26/11 12/25/11 41/29/11 14/30/11 13/31/11
f 1/1/1 13/27/1 15/32/1
f 2/4/12 42/33/12 40/28/12
f 13/31/13 14/30/13 43/34/13 16/35/13 15/36/13
f 1/1/1 15/32/1 17/37/1
f 2/4/14 44/38/14 42/33/14
f 15/36/15 16/35/15 45/39/15 18/40/15 17/41/15
f 1/1/1 17/37/1 19/42/1
f 2/4/16 46/43/16 44/38/16
f 17/41/17 18/40/17 47/44/17 20/45/17 19/46/17
f 1/1/1 19/42/1 21/47/1
f 2/4/18 48/48/18 46/43/18
f 19/46/19 20/45/19 49/49/19 22/50/19 21/51/19
f 1/1/1 21/47/1 23/52/1
f 2/4/20 50/53/20 48/48/20
f 21/51/21 22/50/21 51/54/21 24/55/21 23/56/21
f 1/1/1 23/52/1 25/57/1
f 2/4/22 52/58/22 50/53/22
f 23/56/23 24/55/23 53/59/23 26/60/23 25/61/23
f 1/1/1 25/57/1 27/62/1
f 2/4/24 54/63/24 52/58/24
f 25/61/25 26/60/25 55/64/25 28/65/25 27/66/25
f 1/1/1 27/62/1 29/67/1
f 2/4/26 56/68/26 54/63/26
f 27/66/27 28/65/27 57/69/27 30/70/27 29/71/27
f 1/1/1 29/67/1 3/2/1
f 2/4/28 31/6/28 56/68/28
f 29/71/29 30/70/29 58/72/29 4/73/29 3/74/29
f 56/68/30 58/75/30 30/76/30
f 56/68/30 31/6/30 58/75/30
f 31/6/30 4/77/30 58/75/30
f 54/63/31 57/78/31 28/79/31
f 54/63/31 56/68/31 57/78/31
f 56/68/31 30/76/31 57/78/31
f 52/58/32 55/80/32 26/81/32
f 52/58/32 54/63/32 55/80/32
f 54/63/32 28/79/32 55/80/32
f 50/53/33 53/82/33 24/83/33
f 50/53/33 52/58/33 53/82/33
f 52/58/33 26/81/33 53/82/33
f 48/48/34 51/84/34 22/85/34
f 48/48/34 50/53/34 51/84/34
f 50/53/34 24/83/34 51/84/34
f 46/43/35 49/86/35 20/87/35
f 46/43/35 48/48/35 49/86/35
f 48/48/35 22/85/35 49/86/35
f 44/38/36 47/88/36 18/89/36
f 44/38/36 46/43/36 47/88/36
f 46/43/36 20/87/36 47/88/36
f 42/33/37 45/90/37 16/91/37
f 42/33/37 44/38/37 45/90/37
f 44/38/37 18/89/37 45/90/37
f 40/28/38 43/92/38 14/93/38
f 40/28/38 42/33/38 43/92/38
f 42/33/38 16/91/38 43/92/38
f 38/23/39 41/94/39 12/95/39
f 38/23/39 40/28/39 41/94/39
f 40/28/39 14/93/39 41/94/39
f 36/18/40 39/96/40 10/97/40
f 36/18/40 38/23/40 39/96/40
f 38/23/40 12/95/40 39/96/40
f 34/13/41 37/98/41 8/99/41
f 34/13/41 36/18/41 37/98/41
f 36/18/41 10/97/41 37/98/41
f 32/5/42 35/100/42 6/101/42
f 32/5/42 34/13/42 35/100/42
f 34/13/42 8/99/42 35/100/42
f 31/6/43 33/102/43 4/77/43
f 31/6/43 32/5/43 33/102/43
f 32/5/43 6/101/43 33/102/43
f 59/103/44 63/104/44 60/105/44
f 60/105/45 63/104/45 61/106/45
f 59/107/9 60/108/9 61/109/9 62/110/9
f 61/106/46 63/104/46 62/111/46
f 62/111/47 63/104/47 59/103/47
