<?xml version="1.0" encoding="UTF-8" standalone="no"?>
<svg
   xmlns:dc="http://purl.org/dc/elements/1.1/"
   xmlns:cc="http://creativecommons.org/ns#"
   xmlns:rdf="http://www.w3.org/1999/02/22-rdf-syntax-ns#"
   xmlns:svg="http://www.w3.org/2000/svg"
   xmlns="http://www.w3.org/2000/svg"
   xmlns:sodipodi="http://sodipodi.sourceforge.net/DTD/sodipodi-0.dtd"
   xmlns:inkscape="http://www.inkscape.org/namespaces/inkscape"
   width="320mm"
   height="128mm"
   viewBox="0 0 320 128"
   version="1.1"
   id="svg16"
   sodipodi:docname="miamlong.svg"
   inkscape:export-filename="/home/hatkid/mam.png"
   inkscape:export-xdpi="29.602089"
   inkscape:export-ydpi="29.602089"
   inkscape:version="1.0.2 (e86c870879, 2021-01-15)">
  <defs
     id="defs10" />
   <style>
    @font-face {
        font-family: Curse Casual;
        src: url(https://devhonk.github.io/cursecasual.ttf); format("truetype");
    }
    svg{
        font-family: font, fallBackFonts, sans-serif;
    }
   </style>

  <sodipodi:namedview
     id="base"
     pagecolor="#ffffff"
     bordercolor="#666666"
     borderopacity="1.0"
     inkscape:pageopacity="0.0"
     inkscape:pageshadow="2"
     inkscape:zoom="0.7071068"
     inkscape:cx="588.47486"
     inkscape:cy="320.46959"
     inkscape:document-units="mm"
     inkscape:current-layer="layer1"
     inkscape:document-rotation="0"
     showgrid="false"
     inkscape:window-width="1366"
     inkscape:window-height="682"
     inkscape:window-x="0"
     inkscape:window-y="0"
     inkscape:window-maximized="1" />
  <metadata
     id="metadata13">
    <rdf:RDF>
      <cc:Work
         rdf:about="">
        <dc:format>image/svg+xml</dc:format>
        <dc:type
           rdf:resource="http://purl.org/dc/dcmitype/StillImage" />
        <dc:title />
      </cc:Work>
    </rdf:RDF>
  </metadata>
  <g
     inkscape:label="Calque 1"
     inkscape:groupmode="layer"
     id="layer1">
    <path
       style="fill:#6b4026;fill-opacity:1;stroke:#4b261b;stroke-width:0.264583px;stroke-linecap:butt;stroke-linejoin:miter;stroke-opacity:1"
       d="m 61.655548,111.21382 c -1.39102,-0.39388 -3.31449,0.81572 -4.76069,0.26396 -0.29129,-0.11114 -0.92367,-0.0996 -1.17161,-0.22772 -0.086,-0.0444 -0.44621,-0.48829 -0.53095,-0.53093 -0.41512,-0.20887 -0.9594,-0.0962 -1.42183,-0.21464 -0.64315,-0.16468 -1.22098,-0.6659 -1.71486,-1.02546 -0.35613,-0.25927 -1.11865,-0.34509 -1.52453,-0.54855 -0.47076,-0.23598 -1.338831,0.26143 -1.793701,0 -1.06438,-0.61175 -1.01922,-0.36576 -2.05563,-0.67674 -0.98467,-0.29546 -2.18435,-1.07311 -3.08399,-1.47292 -0.73353,-0.32599 -2.07987,0.2153 -2.76821,-0.16988 -1.627299,-0.9106 -3.281922,-1.50333 -5.079892,-2.0563 -0.547735,-0.16846 -1.073743,-0.74912 -1.680959,-0.95763 -0.390472,-0.13408 -0.965936,0.1719 -1.336527,0 -0.622858,-0.28891 -0.933968,-0.95276 -1.501105,-1.27065 -0.30992,-0.17372 -1.266952,-0.40811 -1.784446,-0.68878 -1.052544,-0.57087 -1.59671,-2.125393 -2.664163,-2.664173 -0.04526,-0.0228 -0.101391,0 -0.152085,0 -0.240374,-0.0801 -0.505503,-0.1073 -0.721125,-0.24036 -0.214437,-0.13234 -0.311647,-0.417 -0.53454,-0.53454 -0.2593,-0.13674 -0.900473,0.004 -1.181751,-0.11142 -0.979207,-0.40075 -1.738477,-1.82796 -2.66454,-2.30045 -0.925195,-0.47206 -0.599604,-1.21962 -0.922115,-1.767222 -0.321746,-0.5463 -1.131797,-0.95841 -1.350473,-1.54278 -0.186272,-0.49778 0.51589,0.21594 -0.22683,-0.64769 -0.189299,-0.22011 -1.114279,0.0124 -1.685769,-0.81187 -0.188486,-0.27187 0.120182,-0.92099 0,-1.23303 -0.07515,-0.19512 -0.419224,-0.32148 -0.507492,-0.50749 -0.06572,-0.1385 0.08279,-0.43833 0,-0.56942 -0.324887,-0.51442 -0.765296,-0.23896 -1.15906,-0.64631 -0.112427,-0.11631 -0.198699,-0.62121 -0.267269,-0.79847 -0.14923,-0.38577 -0.594582,-0.28353 -0.768106,-0.77864 -0.399122,-1.13878 0.03085,-2.84848 -0.249994,-4.03811 -0.0399,-0.16902 -1.877193,-1.79746 -2.061586,-2.15565 -0.422915,-0.82152 -0.06764,-2.81446 -0.267269,-3.65777 -0.254929,-1.07689 -1.784882,-0.56544 -2.100376,-1.65896 -0.144023,-0.49919 0.185671,-1.1662 0,-1.64938 -0.177424,-0.46172 -0.589801,-0.81308 -0.747403,-1.28193 -0.533228,-1.5863 -0.293039,-1.06615 -1.031364,-2.26253 -0.555319,-0.89983 -0.618845,-8.02996 -0.618845,-9.20239 0,-0.82063 -0.389631,-3.12206 0,-3.88487 0.201663,-0.39481 0.776838,-0.65686 1.088948,-0.96897 0.841452,-0.84145 2.780361,-2.75578 3.394538,-3.66181 0.371737,-0.54838 1.399927,-2.10144 2.103215,-2.34522 0.751264,-0.2604 2.74673,-0.26139 3.199273,-0.4837 0.0056,-0.003 0.486304,-0.48909 0.491847,-0.49184 1.136314,-0.56346 3.837184,-1.7783 4.560107,-2.85565 0.448951,-0.66906 0.680313,-1.842 1.242632,-2.40432 0.126545,-0.12655 0.357185,-0.11013 0.4802,-0.24011 0.306919,-0.32429 0.696346,-1.38186 1.018167,-1.7639 0.367366,-0.436107 1.069136,-0.831967 1.336347,-1.336347 0.439685,-0.82993 0.464989,-1.59829 0.768448,-2.50865 0.195101,-0.58529 0.853331,-1.01764 1.036746,-1.56789 0.132747,-0.39825 0.06871,-1.28563 0.267271,-1.66075 1.561375,-2.94973 -0.230465,1.70298 0.534538,-1.1991 0.189537,-0.71902 1.546196,-1.19799 1.870578,-1.87058 0.238265,-0.49404 1.033653,-2.39584 1.502981,-2.62702 0.355513,-0.17511 0.653603,-0.5866 1.031298,-0.77662 0.446154,-0.22446 0.21785,0.54124 0.791909,-0.26397 0.068,-0.0954 0,-0.899123 0,-1.060045 0,-0.877652 0.09916,-2.024084 -0.72408,-2.575806 -0.07531,-0.05047 -0.451361,-0.171286 -0.512662,-0.331941 -0.153138,-0.40132 -0.115753,-1.599515 0,-1.97798 0.0463,-0.151379 1.465456,-1.350195 1.705766,-1.799246 0.387374,-0.723847 0.309758,-1.979851 0.763865,-2.659541 0.438185,-0.655858 1.239044,-0.740953 1.734463,-1.266415 1.508604,-1.600089 1.70896,-1.6412 3.519819,-2.61375 0.75854,-0.407385 0.86288,-1.786365 1.64142,-2.29555 0.61155,-0.399976 1.6961,-0.548664 2.33673,-0.760151 0.12015,-0.03966 0.73409,0.0953 0.89711,0 0.0206,-0.01206 0.46871,-0.4770666 0.49321,-0.4932306 0.0162,-0.01066 2.09578,-0.541072 2.40987,-0.646387 0.50903,-0.170683 1.927861,0.31369 2.398391,0 0.20708,-0.138052 0.30582,-0.415692 0.52794,-0.527944 0.98129,-0.495922 3.56475,0.392588 4.68741,0 0.70909,-0.247971 4.72423,-0.64715 5.4508,-0.404964 0.23905,0.07968 0.31122,0.417809 0.53454,0.534541 0.81065,0.42374 3.28309,-0.510964 3.9855,-0.737704 1.10584,-0.35697 4.8986,0 6.3723,0 1.59821,0 2.28391,-0.714814 3.78858,-0.292237 1.39536,0.391882 2.49057,1.51721 3.60319,2.2707966 1e-5,8e-6 0.50932,-8e-6 0.50934,0 0.63434,0.214823 1.10524,0.479438 1.64391,0.758023 0.31195,0.161338 0.96246,-0.106368 1.28157,0 0.23905,0.07968 0.31166,0.416967 0.53454,0.53454 0.56989,0.300636 1.29159,0.331521 1.88713,0.651201 0.16685,0.08957 0.74425,-0.03751 0.85584,0 0.23685,0.07963 0.38648,0.57523 0.62964,0.62965 1.82817,0.409158 2.91855,1.769746 4.38505,2.891032 0.24939,0.190682 0.8807,0.01511 1.25314,0.263943 0.54432,0.363648 0.78727,1.55045 1.49656,1.763821 0.93628,0.281656 0.81988,0.391583 1.44616,1.06563 0.32275,0.347372 1.24524,0.322837 1.65063,0.728083 0.39034,0.3902 0.36078,1.047893 0.50625,1.484326 0.10508,0.315232 0.64882,0.499205 0.79842,0.798414 0.64117,1.282348 0.24988,2.898169 1.335352,4.007499 1.2613,1.289018 3.43197,0.76092 4.53388,2.441892 0.32138,0.49028 0.32163,1.121 0.53454,1.60028 0.21559,0.48533 0.79134,0.67806 0.98284,1.25012 0.20624,0.61606 0.41121,1.47973 0.77707,2.02852 0.16766,0.25149 0.50586,0.40261 0.66153,0.66155 0.0977,0.16257 0.16396,0.34213 0.24594,0.51319 0.0891,0.26727 0.12232,0.56023 0.26726,0.80181 0.19447,0.32411 0.63193,0.46416 0.80181,0.80181 0.0791,0.15718 -0.0979,0.38164 0,0.52786 0.23879,0.35668 0.86882,0.67109 1.06908,1.06907 0.29216,0.58062 0.17307,1.33717 0.50787,1.99468 0.37193,0.73046 1.40485,1.17968 1.86101,1.86102 0.58901,0.879737 0.72726,2.234217 1.30281,3.166967 0.42171,0.68342 -0.29261,5.57436 0,6.77385 0.36169,1.4826 1.53991,1.68537 1.86967,2.66449 0.41233,1.22432 -0.13592,2.81055 0.26727,4.02009 0.25167,0.75503 0.69411,1.33429 1.01761,1.99534 0.20444,0.41776 0.17303,2.8646 0,3.20518 -0.11268,0.2218 -0.41705,0.30493 -0.52774,0.52773 -0.27075,0.545 0.13538,0.39568 0,0.80181 -0.35398,1.06193 -0.55606,1.94985 -0.7799,3.06905 -0.1803,0.9015 -0.84433,1.26858 -1.05927,2.12835 -0.15623,0.62491 0.029,1.16798 -0.25466,1.73356 -0.8639,1.72238 -0.15461,-0.41638 -1.06574,0.79846 -0.21906,0.29209 -1.10823,1.97714 -1.3084,2.37748 -0.13845,0.27691 0.13845,0.76148 0,1.03839 -0.52017,1.04035 0.0816,2.31151 -0.25464,3.4372 -0.064,0.21413 -0.37329,0.2746 -0.47407,0.47406 -0.40256,0.79672 -0.0566,1.36637 -0.77519,2.08493 -0.20603,0.20603 -0.67745,0.18465 -0.73713,0.46985 -0.17804,0.85087 -0.0342,4.45682 -0.26727,4.92299 -0.21439,0.42879 -0.744,0.48367 -1.03604,0.78027 -0.16238,0.16491 -0.1947,0.59082 -0.5262,0.79015 -0.96053,0.57754 -1.48157,1.16905 -2.13806,2.1538 -0.2614,0.39209 -0.84827,0.64 -1.05914,1.05914 -0.16448,0.32691 -0.32342,0.99248 -0.53118,1.29147 -0.37014,0.53266 -0.79422,0.79597 -1.05641,1.320342 -0.28132,0.56265 -0.98963,0.48651 -1.27379,1.05094 -0.54158,1.07577 -2.626442,4.0566 -3.827102,4.60902 -0.82325,0.378773 -1.77524,1.007813 -2.57754,1.275143 -1.0197,0.33976 -2.17975,0.69729 -3.09489,1.31426 -0.6592,0.44442 -1.96021,2.27537 -2.41587,2.47914 -0.059,0.0264 -0.1293,0 -0.19396,0 -0.26624,0.0881 -0.54777,0.13907 -0.79874,0.26419 -0.44927,0.22398 -0.52003,0.61644 -1.06898,0.80177 -0.67898,0.22924 -1.43241,0.0189 -2.15677,0.20292 -0.85708,0.21771 -1.376,0.69715 -2.05809,1.04824 -0.19182,0.0987 -0.78533,-0.0532 -0.94375,0 -0.80391,0.2702 -1.72611,0.81465 -2.63168,1.07408 -0.17289,0.0495 -0.37858,-0.0802 -0.53953,0 -0.39867,0.19871 -0.68737,0.57219 -1.06908,0.8018 -0.87687,0.52749 -3.79422,-0.47421 -4.78007,0 -0.18917,0.091 -0.24643,0.37812 -0.44531,0.44531 -1.11584,0.37701 -2.40153,0.39318 -3.61261,0.79687 -0.63038,0.21012 -0.78016,0.73244 -1.29998,1.03602 -0.35026,0.20457 -0.78483,0.0631 -1.1191,0.23171 -0.34725,0.17518 -0.52514,0.72672 -0.88085,0.88088 -0.23549,0.10205 -0.52042,-0.0601 -0.76994,0 -1.67525,0.40328 -2.48245,0.0636 -3.74717,-1.33951 z"
       id="path855" />
    <path
       style="fill:#6b4026;fill-opacity:1;stroke:#4b261b;stroke-width:0.264583px;stroke-linecap:butt;stroke-linejoin:miter;stroke-opacity:1"
       d="m 14.939694,24.361657 c -0.413387,0.02936 -1.076383,0.01024 -1.350481,-0.400905 -0.03706,-0.0556 0.0083,-0.134152 0,-0.200453 -0.01408,-0.112692 -0.06052,-0.220695 -0.06682,-0.334087 -0.02349,-0.423109 -0.134088,-0.896419 0.06682,-1.269529 0.292833,-0.543833 1.038731,-1.237266 1.735683,-1.004949 0.495988,0.165328 0.844193,0.541298 1.271934,0.803609 0.08598,0.05273 0.170564,-0.0872 0.225756,-0.115874 0.109545,-0.05692 0.255725,-0.04585 0.370342,0 0.05849,0.02339 0.07962,0.101221 0.133636,0.133633 0.205891,0.123536 0.347996,0.162433 0.503785,0.370149 0.08003,0.106704 0.08501,0.277556 0.132808,0.397581 0.08325,0.209042 0.03227,0.05257 0.169325,0.232463 0.12047,0.158121 0.09252,0.385488 0.176951,0.55435 0.02817,0.05635 0.09795,0.08172 0.133633,0.133636 0.03296,0.04794 -0.19445,0.653658 -0.262583,0.78912 -0.224793,0.446931 -0.787784,0.54089 -1.185082,0.673322 -0.248814,0.08294 -0.617826,-0.109982 -0.853191,0 -0.09525,0.04451 -0.113732,0.08817 -0.251471,0.05352 -0.188219,-0.04735 -0.58674,-0.189412 -0.734991,-0.267269 -0.05154,-0.02707 -0.14342,0.02907 -0.194355,0 -0.07831,-0.04469 -0.11062,-0.150942 -0.191262,-0.191264 -0.01394,-0.007 -0.223261,-0.04174 -0.247587,-0.119698 -0.01627,-0.0521 0.200359,-0.117634 0.41715,-0.237352 z"
       id="path857" />
    <path
       style="fill:#6b4026;fill-opacity:1;stroke:#4b261b;stroke-width:0.264583px;stroke-linecap:butt;stroke-linejoin:miter;stroke-opacity:1"
       d="m 10.682877,34.408798 c 0.320383,-0.0427 0.398293,-0.5007 0.704371,-0.5637 0.72899,-0.15005 1.155874,0.22323 1.712274,0.59471 0.382421,0.25533 0.649931,-0.50777 0.875398,-0.41054 0.08445,0.0364 0.118573,0.14408 0.195096,0.1951 0.443161,0.29544 0.150125,0.0165 0.334087,0.20045 0.142899,0.1429 0.374205,0.28852 0.374205,0.49538 0,0.11052 -0.02604,0.22415 0,0.33156 -0.03819,0.11396 0.102082,0.11695 0.125823,0.18873 0.0464,0.14031 -0.07161,0.31725 -0.124341,0.42272 -0.09249,0.18497 -0.697913,0.10122 -0.855925,0.17684 -0.08397,0.0402 -0.127026,0.16158 -0.208073,0.20808 -0.07045,0.0404 -0.238488,-0.017 -0.313235,0 -0.21957,0.0498 -0.450755,0.17366 -0.647184,0.25391 -0.09741,0.0398 -0.425506,-0.127 -0.526309,-0.16205 -0.496957,-0.17276 -1.182219,0.26465 -1.525929,-0.41811 -0.05063,-0.10056 -0.02445,-0.19529 -0.06366,-0.30122 -0.08419,-0.22737 -0.489382,-0.21362 -0.327385,-0.6772 0.113323,-0.3243 0.285946,-0.14971 0.270787,-0.53466 z"
       id="path859" />
    <path
       style="fill:none;stroke:#4b261b;stroke-width:0.264583px;stroke-linecap:butt;stroke-linejoin:miter;stroke-opacity:1"
       d="m 22.477668,36.584728 c -0.0038,-0.0113 0.04248,-0.11786 0.06869,-0.12409 0.0182,-0.004 0.0374,0 0.05609,0 0.02175,0 0.0776,-0.01 0.09581,0 0.01514,0.008 0.01471,0.0995 0.0089,0.11412 -0.004,0.0101 -0.02646,0.04 -0.03392,0.0519 -0.0083,0.0132 -0.05094,0.0333 -0.06541,0.0429 -0.01765,0.0117 -0.06069,-0.0117 -0.07515,-0.0117 -0.06297,0 -0.07275,0.0146 -0.055,-0.0731 z"
       id="path867" />
    <path
       style="fill:none;stroke:#4b261b;stroke-width:0.264583px;stroke-linecap:butt;stroke-linejoin:miter;stroke-opacity:1"
       d="m 22.477668,36.584728 8e-6,3e-5"
       id="path869" />
    <path
       style="fill:#6b4026;fill-opacity:1;stroke:#4b261b;stroke-width:0.264583px;stroke-linecap:butt;stroke-linejoin:miter;stroke-opacity:1"
       d="m 23.881949,21.764943 c 0.11194,-0.117877 0.213524,-0.332509 0.382778,-0.380867 0.0424,-0.01212 0.08879,0.0072 0.132292,0 0.239324,-0.03989 -0.05199,-0.01574 0.09922,-0.06615 0.109871,-0.03662 0.231841,0.007 0.347443,0 0.281368,-0.01714 0.565044,-0.02723 0.841809,-0.08076 0.01942,-0.0038 0.53196,-0.24674 0.600979,-0.0494 0.05205,0.148823 -0.111421,0.405783 -0.23151,0.468339 -0.02676,0.01394 -0.0916,0.0108 -0.114131,0.02655 -0.03658,0.02556 -0.05531,0.07363 -0.09467,0.09467 -0.01953,0.01042 -0.05411,-0.009 -0.07444,0 -0.115903,0.05149 -0.3321,0.482124 -0.507307,0.539631 -0.02096,0.0069 -0.04523,-0.007 -0.06615,0 -0.0089,0.003 -0.154463,0.114128 -0.18465,0.129625 -0.05899,0.03029 -0.479832,0.03015 -0.540141,0 -0.03258,-0.0163 -0.100256,-0.13163 -0.149929,-0.149926 -0.09237,-0.03402 -0.245563,-0.0864 -0.299845,-0.183153 -0.01447,-0.0258 0,-0.05914 0,-0.08871 0,-0.156967 -0.0037,-0.137824 -0.141753,-0.259848 z"
       id="path871" />
    <path
       style="fill:#4b261b;fill-opacity:1;stroke:#4b261b;stroke-width:0.264583px;stroke-linecap:butt;stroke-linejoin:miter;stroke-opacity:1"
       d="m 57.241538,48.197475 c 0.28607,-0.12252 0.55363,-0.30373 0.85821,-0.36755 0.2641,-0.0553 1.49462,0.82833 1.58181,1.18493 0.0233,0.0953 0.051,0.80742 0,0.95044 -0.10085,0.28295 -1.61335,0.2325 -1.91421,0.13229 -0.12321,-0.041 -0.51712,-0.47236 -0.5672,-0.5672 -0.13756,-0.26051 0.0569,-1.10279 0.0414,-1.33291 z"
       id="path875" />
    <path
       style="fill:#4b261b;fill-opacity:1;stroke:#4b261b;stroke-width:0.264583px;stroke-linecap:butt;stroke-linejoin:miter;stroke-opacity:1"
       d="m 68.247928,40.122408 c 1.06354,-0.76148 2.43252,1.07943 1.21352,1.680267 -0.21118,0.10409 -0.59586,-0.0802 -0.81501,0 -0.1626,0.0595 -0.21318,0.28838 -0.3673,0.3673 -0.27762,0.14215 -0.48548,-0.0826 -0.68053,-0.18709 -0.09,-0.0482 -0.2173,0.05 -0.30632,0 -0.51569,-0.2897 -0.64655,-0.842527 -0.26392,-1.451477 0.0763,-0.12139 0.29641,0.0518 0.4301,0 0.27637,-0.10704 0.52631,-0.27267 0.78946,-0.409 z"
       id="path877" />
    <path
       style="fill:#4b261b;fill-opacity:1;stroke:#4b261b;stroke-width:0.264583px;stroke-linecap:butt;stroke-linejoin:miter;stroke-opacity:1"
       d="m 71.649928,61.746105 c 0.30456,0.84069 -0.068,3.49518 0.33907,4.11791 0.14906,0.22805 0.24197,0.10649 0.48873,0.31178 0.0362,0.0301 -0.0975,-0.0175 -0.14121,0 -0.39497,0.15865 -0.93406,0.0948 -1.39155,0.0948 -0.1985,0 -0.80735,0.099 -0.95325,0 -0.13913,-0.0944 -0.20633,-0.2815 -0.35672,-0.35673 -0.65422,-0.32721 -1.04517,0.3486 -1.74859,-1.05827 -0.12535,-0.25069 -0.18709,-1.14716 -0.18709,-1.4693 0,-1.25963 0.96196,-0.56427 1.80011,-0.81782 0.0661,-0.02 0.0977,-0.0977 0.14654,-0.14653 0.11928,-0.0624 0.22744,-0.15376 0.35786,-0.18709 0.58128,-0.14856 0.99608,-0.25185 1.6461,-0.48875 z"
       id="path879" />
    <path
       style="fill:#4b261b;fill-opacity:1;stroke:#4b261b;stroke-width:0.264583px;stroke-linecap:butt;stroke-linejoin:miter;stroke-opacity:1"
       d="m 81.869158,33.071298 c -0.18716,-0.99316 -0.36366,-1.27882 0.68972,-0.94399 0.13361,0.0425 0.33228,0.0551 0.41876,0.20195 0.0479,0.0814 -0.53042,0.84936 -0.68533,0.92304 -0.13854,0.0659 -0.28485,-0.1146 -0.42315,-0.181 z"
       id="path881" />
    <path
       style="fill:#4b261b;fill-opacity:1;stroke:#4b261b;stroke-width:0.264583px;stroke-linecap:butt;stroke-linejoin:miter;stroke-opacity:1"
       d="m 37.709323,69.545275 c -0.0033,-0.45503 0.382624,-0.86081 0.827894,-0.86081 0.659249,0 1.148467,0.0907 1.455537,0.73194 0.105841,0.22103 0.0205,0.51761 0.09355,0.73679 0.05324,0.15974 0.163166,0.42115 0.09235,0.60825 -0.10967,0.28977 -0.395488,0.0474 -0.574709,0.14859 -0.07916,0.0447 -0.380511,0.11108 -0.498417,0.0585 -0.0949,-0.0423 -0.01323,-0.29385 -0.03987,-0.34869 -0.0837,-0.17224 -0.383159,-0.4767 -0.524095,-0.61764 -0.37625,-0.37625 -0.677333,0.35723 -0.832241,-0.45691 z"
       id="path883" />
    <path
       style="fill:#4b261b;fill-opacity:1;stroke:#4b261b;stroke-width:0.264583px;stroke-linecap:butt;stroke-linejoin:miter;stroke-opacity:1"
       d="m 96.444428,56.964185 c -0.26061,-0.21937 -0.85506,-0.37505 -0.36297,-0.63324 0.0501,-0.0263 0.11577,0.0172 0.16964,0 0.1342,-0.0428 0.40509,-0.0933 0.57377,-0.0508 0.15752,0.0396 0.58583,0.54869 0.24586,0.65138 -0.17211,0.052 -0.44642,0.008 -0.6263,0.0327 z"
       id="path885" />
    <path
       style="fill:#4b261b;fill-opacity:1;stroke:#4b261b;stroke-width:0.264583px;stroke-linecap:butt;stroke-linejoin:miter;stroke-opacity:1"
       d="m 57.626978,101.05218 c -0.12228,0.13563 0.0237,-0.62882 0.20178,-0.55866 0.13989,0.0551 0.19462,0.19614 0.31682,0.25763 0.0377,0.0189 0.089,-0.0193 0.12648,0 0.13791,0.0712 0.48258,0.50268 0.48301,0.64319 5.3e-4,0.13195 -0.14208,0.12351 -0.15398,0.2146 -0.0143,0.10975 0.11583,0.25608 -0.0517,0.3474 -0.13949,0.076 -1.01078,-0.48109 -0.99812,-0.6333 0.008,-0.0934 0.0504,-0.18057 0.0757,-0.27086 z"
       id="path887" />
    <path
       style="fill:#4b261b;fill-opacity:1;stroke:#4b261b;stroke-width:0.264583px;stroke-linecap:butt;stroke-linejoin:miter;stroke-opacity:1"
       d="m 61.806218,29.488988 c -0.0483,0.0227 -0.37313,0.22438 -0.44143,0.0878 -0.0215,-0.043 -0.0409,-0.12085 -0.0662,-0.15838 -0.0185,-0.0276 -0.0949,-0.0779 -0.0646,-0.13167 0.0814,-0.14447 0.41408,-0.15324 0.49442,-0.0267 0.0597,0.094 0.061,0.0987 0.0777,0.229 z"
       id="path889"
       inkscape:export-xdpi="4531.8311"
       inkscape:export-ydpi="4531.8311" />
    <path
       style="fill:#4b261b;fill-opacity:1;stroke:#4b261b;stroke-width:0.264583px;stroke-linecap:butt;stroke-linejoin:miter;stroke-opacity:1"
       d="m 75.881488,90.416335 c -0.29315,-0.67888 0.58486,-0.79742 1.04427,-0.56731 0.0779,0.039 0.11684,0.1558 0.19475,0.19475 0.0381,0.0191 0.0898,-0.0191 0.12793,0 0.0528,0.0264 0.072,0.0999 0.12534,0.12535 0.14247,0.0678 0.18206,-0.0242 0.25874,0.19844 0.12528,0.36383 -0.66385,0.57637 -0.92146,0.47693 -0.14062,-0.0543 -0.11412,-0.16839 -0.2275,-0.24293 -0.0666,-0.0438 -0.21173,0.0374 -0.28316,0 -0.10892,-0.057 -0.21261,-0.12349 -0.31891,-0.18523 z"
       id="path891" />
    <path
       style="fill:#4b261b;fill-opacity:1;stroke:#4b261b;stroke-width:0.264583px;stroke-linecap:butt;stroke-linejoin:miter;stroke-opacity:1"
       d="m 37.574997,61.102185 c -0.04766,-0.67302 -0.186003,-0.55646 0.08166,-0.91334 0.225581,-0.30078 0.225872,-0.18619 0.453646,-0.26459 0.02439,-0.008 0.09163,-0.10443 0.119087,-0.11908 0.252325,-0.1346 0.679701,0.17792 0.831691,0.32991 0.0985,0.0985 0.308634,0.19132 0.264583,0.32347 -0.06921,0.20762 -1.002083,0.78274 -1.258652,0.86862 -0.03672,0.0123 -0.08223,-0.0186 -0.116176,0 -0.01773,0.01 -0.372136,0.14513 -0.410646,0.0207 -0.02445,-0.079 0.0232,-0.16378 0.03481,-0.24568 z"
       id="path893" />
    <path
       style="fill:#4b261b;fill-opacity:1;stroke:#4b261b;stroke-width:0.264583px;stroke-linecap:butt;stroke-linejoin:miter;stroke-opacity:1"
       d="m 43.384437,89.642835 c -0.51106,-0.44205 -0.67081,-0.53521 -0.24182,-0.9642 0.11343,-0.11343 0.23024,-0.29751 0.37071,-0.3707 0.20115,-0.10482 1.11825,-0.0518 1.32553,0 0.23024,0.0575 0.445,0.33207 0.63962,0.45369 0.1926,0.12036 1.08202,-0.63732 1.54374,0.19375 0.24813,0.44662 -0.6757,1.04966 -0.96493,1.19901 -0.0769,0.0397 -0.17583,-0.0217 -0.25958,0 -0.1666,-0.0506 -0.17453,0.14578 -0.27891,0.18537 -0.0333,0.0126 -1.15397,0.1672 -1.19553,0.14879 -0.16252,-0.072 -0.9132,-0.82054 -0.93883,-0.84571 z"
       id="path895" />
    <path
       style="fill:#4b261b;fill-opacity:1;stroke:#4b261b;stroke-width:0.264583px;stroke-linecap:butt;stroke-linejoin:miter;stroke-opacity:1"
       d="m 63.299538,84.299295 c -0.004,-0.0163 -0.31006,-0.44936 -0.1125,-0.54545 0.14297,-0.0695 0.27581,0.0675 0.36537,0.12789 0.0482,0.0325 0.11986,-0.0202 0.17437,0 0.16685,0.0618 0.35032,0.23288 0.48324,0.36578 0.0777,0.0777 0.42802,0.0164 0.4292,0.0218 0.0722,0.32798 5.3e-4,0.76859 -0.16386,1.0415 -0.20492,0.34027 -0.85704,-0.25275 -1.00508,-0.39858 -0.032,-0.0315 -0.0216,-0.16297 -0.0386,-0.20801 -0.014,-0.0371 -0.13502,-0.11778 -0.16428,-0.1321 -0.0183,-0.009 -0.0636,0.0202 -0.0612,0 0.0112,-0.0954 0.0622,-0.18187 0.0933,-0.2728 z"
       id="path897" />
    <path
       style="fill:#4b261b;fill-opacity:1;stroke:#4b261b;stroke-width:0.264583px;stroke-linecap:butt;stroke-linejoin:miter;stroke-opacity:1"
       d="m 90.036728,93.545695 c 0.0605,-0.16561 0.0976,-0.17741 0.22612,-0.30592 0.0935,-0.0935 0.16059,0.006 0.23408,0.0611 0.0395,0.0295 0.0913,0.0388 0.13229,0.0661 0.10255,0.0684 0.1954,0.19942 0.25969,0.29276 0.0225,0.0327 -0.0112,0.10819 0,0.14856 0.0171,0.0619 0.0496,0.12941 0.0315,0.19734 -0.0279,0.1047 -0.32697,0.16187 -0.42015,0.11511 -0.0507,-0.0254 -0.0661,-0.12162 -0.12862,-0.14852 -0.0887,-0.0382 -0.31326,-0.18547 -0.36344,-0.28543 -0.0215,-0.0429 0.0179,-0.0943 0.0285,-0.14112 z"
       id="path899" />
    <path
       style="fill:#4b261b;fill-opacity:1;stroke:#4b261b;stroke-width:0.264583px;stroke-linecap:butt;stroke-linejoin:miter;stroke-opacity:1"
       d="m 88.201148,80.684525 c -0.89421,-1.00446 0.97414,-1.17011 1.33066,-0.47534 0.0291,0.0568 0,0.22172 0,0.28344 0,0.0487 0.0285,0.29947 0,0.36362 -0.0472,0.10632 -0.8563,0.13614 -0.98391,0.0691 -0.12456,-0.0655 -0.23117,-0.16052 -0.34675,-0.24078 z"
       id="path901" />
    <path
       style="fill:#4b261b;fill-opacity:1;stroke:#4b261b;stroke-width:0.264583px;stroke-linecap:butt;stroke-linejoin:miter;stroke-opacity:1"
       d="m 36.738313,53.136995 c -0.244375,-0.0714 -0.605552,0.13442 -0.870704,0.0531 -0.136732,-0.0419 -0.285676,-0.29738 -0.337717,-0.41206 -0.03043,-0.0671 -0.188349,-0.1282 -0.199147,-0.19914 -0.0026,-0.0173 0.250182,-0.11366 0.273571,-0.13705 0.220443,-0.22044 1.118931,-0.43656 1.450663,-0.2725 0.135546,0.067 0.245399,0.66412 0.132863,0.75872 -0.126478,0.10633 -0.299685,0.13928 -0.449529,0.20893 z"
       id="path903" />
    <path
       style="fill:#4b261b;fill-opacity:1;stroke:#4b261b;stroke-width:0.264583px;stroke-linecap:butt;stroke-linejoin:miter;stroke-opacity:1"
       d="m 25.652567,66.736085 c 0.470509,0.0808 0.758055,-0.0364 1.17342,0.0713 0.08762,0.0227 0.190738,-0.0408 0.271549,0 0.372674,0.18804 0.908802,1.09227 0.376,1.39338 -0.361747,0.20445 -1.66705,0.23426 -2.003396,-0.0626 -0.153662,-0.13561 0.129799,-1.25847 0.182427,-1.40207 z"
       id="path905" />
    <path
       style="fill:#4b261b;fill-opacity:1;stroke:#4b261b;stroke-width:0.264583px;stroke-linecap:butt;stroke-linejoin:miter;stroke-opacity:1"
       d="m 39.581858,80.490175 c -0.396628,-0.93558 0.991269,-0.5114 0.991269,-0.25364 0,0.0779 -8e-4,0.30036 -0.0814,0.32723 -0.0568,0.0189 -0.302846,0.0758 -0.362187,0.0306 -0.05387,-0.041 -0.177633,-0.15034 -0.214109,-0.21411 -0.0098,-0.017 0.02106,-0.0892 -0.02548,-0.0874 -0.03733,0.002 -0.282086,0.18313 -0.308084,0.19723 z"
       id="path907" />
    <path
       style="fill:#4b261b;fill-opacity:1;stroke:#4b261b;stroke-width:0.264583px;stroke-linecap:butt;stroke-linejoin:miter;stroke-opacity:1"
       d="m 70.987848,25.133396 c -0.44823,-0.163139 -1.11134,-0.03478 -1.51208,-0.335343 -0.7605,-0.570371 -0.78711,-1.596015 0.0763,-2.108298 0.12355,-0.07331 0.92369,-0.06388 1.01411,0 0.28754,0.203136 0.12863,0.184729 0.45586,0.184729 0.25583,0 1.1161,-0.144449 1.34397,0 0.2216,0.140473 0.56909,0.969071 0.4415,1.255551 -0.10232,0.229738 -0.42805,0.416825 -0.56856,0.624861 -0.12763,0.188971 -0.007,0.325358 -0.0935,0.488268 -0.14744,0.279056 -0.52798,0.886724 -0.81391,1.077507 -0.0722,0.183672 -0.23367,0.0388 -0.33782,0.09135 -0.0665,0.03355 -0.0901,0.12731 -0.15799,0.158002 -0.22007,0.09952 -0.1318,-0.867225 0.15215,-1.436627 z"
       id="path909" />
    <path
       style="fill:#4b261b;fill-opacity:1;stroke:#4b261b;stroke-width:0.264583px;stroke-linecap:butt;stroke-linejoin:miter;stroke-opacity:1"
       d="m 99.005698,71.116245 c 0.67693,-0.0507 0.6864,-0.0639 1.146432,0.26458 0.13383,0.0956 0.36089,0.0648 0.51338,0.21728 0.56716,0.56715 -0.786862,1.83212 -1.439062,1.52989 -0.27852,-0.12907 -0.61304,-0.49876 -0.79362,-0.69528 -0.0951,-0.10349 -0.37874,-0.12532 -0.25636,-0.35921 0.0319,-0.061 0.59589,-0.42868 0.6526,-0.44847 0.0762,-0.0266 0.21572,0.0763 0.2422,0 0.0561,-0.16154 -0.0437,-0.33919 -0.0656,-0.50879 z"
       id="path911" />
    <text
       xml:space="preserve"
       style="font-style:normal;font-weight:normal;font-size:10.5833px;line-height:1.25;font-family:'Curse Casual';fill:#000000;fill-opacity:1;stroke:none;stroke-width:0.264583;-inkscape-font-specification:'Curse Casual';font-stretch:normal;font-variant:normal;"
       x="-1.6353917"
       y="65.637726"
       id="text976"><tspan
         sodipodi:role="line"
         id="tspan974"
         x="-1.6353917"
         y="65.637726"
         style="stroke-width:0.264583;-inkscape-font-specification:'Curse Casual';font-family:'Curse Casual';font-weight:normal;font-style:normal;font-stretch:normal;font-variant:normal;" /></text>
    <text
       xml:space="preserve"
       style="font-style:normal;font-weight:normal;font-size:10.5833px;line-height:1.25;font-family:'Curse Casual';fill:#000000;fill-opacity:1;stroke:none;stroke-width:0.264583;-inkscape-font-specification:'Curse Casual';font-stretch:normal;font-variant:normal;"
       x="12.166286"
       y="60.848629"
       id="text980"><tspan
         sodipodi:role="line"
         id="tspan978"
         x="12.166286"
         y="60.848629"
         style="stroke-width:0.264583;-inkscape-font-specification:'Curse Casual';font-family:'Curse Casual';font-weight:normal;font-style:normal;font-stretch:normal;font-variant:normal;" /></text>
    <text
       xml:space="preserve"
       style="font-style:normal;font-weight:normal;font-size:36px;line-height:1.25;font-family:'Curse Casual';fill:#000000;fill-opacity:1;stroke:none;stroke-width:0.264583;-inkscape-font-specification:'Curse Casual';font-stretch:normal;font-variant:normal;"
       x="138.95949"
       y="21.948421"
       id="text908"><tspan
         id="tspan906"
         x="138.95949"
         y="21.948421"
         style="stroke-width:0.264583;font-size:36px;-inkscape-font-specification:'Curse Casual';font-family:'Curse Casual';font-weight:normal;font-style:normal;font-stretch:normal;font-variant:normal;"
         sodipodi:role="line" /></text>
    <text
       xml:space="preserve"
       style="font-size:36px;line-height:1.25;font-family:'Curse Casual';stroke-width:0.264583;-inkscape-font-specification:'Curse Casual';font-weight:normal;font-style:normal;font-stretch:normal;font-variant:normal;"
       x="132.14777"
       y="69.701599"
       id="text912"><tspan
         sodipodi:role="line"
         id="tspan910"
         x="132.14777"
         y="69.701599"
         style="stroke-width:0.264583;-inkscape-font-specification:'Curse Casual';font-family:'Curse Casual';font-weight:normal;font-style:normal;font-stretch:normal;font-variant:normal;" /></text>
    <text
       xml:space="preserve"
       style="font-style:normal;font-variant:normal;font-weight:normal;font-stretch:normal;font-size:36px;line-height:34.65;font-family:'Curse Casual';-inkscape-font-specification:'Curse Casual';stroke-width:0.264583"
       x="150.00838"
       y="63.343151"
       id="text916"><tspan
         sodipodi:role="line"
         id="tspan914"
         x="150.00838"
         y="63.343151"
         style="font-style:normal;font-variant:normal;font-weight:normal;font-stretch:normal;font-family:'Curse Casual';-inkscape-font-specification:'Curse Casual';stroke-width:0.264583">Miam</tspan></text>
    <text
       xml:space="preserve"
       style="font-size:12px;line-height:1.25;font-family:sans-serif;white-space:pre;inline-size:196.726;stroke-width:0.264583"
       x="113.66785"
       y="82.925606"
       id="text920"
       transform="translate(25.949422,-5.6202984)"><tspan
         x="113.66785"
         y="82.925606"><tspan
           style="font-style:normal;font-variant:normal;font-weight:normal;font-stretch:normal;font-size:12px;font-family:'Curse Casual';-inkscape-font-specification:'Curse Casual';stroke-width:0.264583">The high-level assembly language
</tspan></tspan></text>
    <circle
       id="path922"
       style="fill:#4b261b;stroke:#4b261b;stroke-width:0.264583"
       cx="190.19527"
       cy="88.468994"
       r="0.069934331" />
    <text
       xml:space="preserve"
       style="font-style:normal;font-weight:normal;font-size:7.05556px;line-height:1.25;font-family:sans-serif;fill:#000000;fill-opacity:1;stroke:none;stroke-width:0.264583"
       x="270.85562"
       y="91.070221"
       id="text881"><tspan
         sodipodi:role="line"
         id="tspan879"
         x="270.85562"
         y="91.070221"
         style="font-style:normal;font-variant:normal;font-weight:normal;font-stretch:normal;font-size:7.05556px;font-family:'Curse Casual';-inkscape-font-specification:'Curse Casual';stroke-width:0.264583">(for x86)</tspan></text>
  </g>
</svg>
